<?xml version="1.0" standalone="no"?><!DOCTYPE svg PUBLIC "-//W3C//DTD SVG 1.1//EN" "http://www.w3.org/Graphics/SVG/1.1/DTD/svg11.dtd"><svg t="1752055924657" class="icon" viewBox="0 0 1024 1024" version="1.1" xmlns="http://www.w3.org/2000/svg" p-id="15862" width="16" height="16" xmlns:xlink="http://www.w3.org/1999/xlink"><path d="M344 64A56 56 0 0 1 400 119.984v55.968h167.936a56 56 0 0 1 51.728 77.408 55.952 55.952 0 0 1-51.728 34.56h-79.648a1056.256 1056.256 0 0 1-96.544 267.52 948.08 948.08 0 0 0 51.184 57.456 55.984 55.984 0 1 1-80.624 77.728 1068.896 1068.896 0 0 1-31.04-33.584 1069.072 1069.072 0 0 1-173.888 199.68 56 56 0 0 1-74.736-83.44 956.48 956.48 0 0 0 175.312-208.928 1056.528 1056.528 0 0 1-83.312-139.6 55.968 55.968 0 1 1 100.272-49.76 964.816 964.816 0 0 0 42.672 76.752 934.512 934.512 0 0 0 55.84-163.84H120.08a56 56 0 1 1 0-111.952h167.952V120A56 56 0 0 1 344.016 64z m335.92 335.872c21.168 0 40.56 11.952 50.08 30.96l167.456 334.848 1.024 2.096 55.408 110.816a55.984 55.984 0 1 1-100.128 50.08l-40.512-80.992H546.576l-40.496 80.992a56.032 56.032 0 0 1-103.248-7.328 56 56 0 0 1 3.04-42.752l55.472-110.816a56.96 56.96 0 0 1 1.024-2.096l167.456-334.848a55.968 55.968 0 0 1 50.08-30.96z m-77.44 335.856h154.848l-77.408-154.752-77.44 154.752z" p-id="15863" fill="#1296db"></path></svg>